<svg version="1.1" viewBox="0.0 0.0 169.58792650918636 100.0" fill="none" stroke="none" stroke-linecap="square" stroke-miterlimit="10" xmlns:xlink="http://www.w3.org/1999/xlink" xmlns="http://www.w3.org/2000/svg"><clipPath id="p.0"><path d="m0 0l169.58792 0l0 100.0l-169.58792 0l0 -100.0z" clip-rule="nonzero"/></clipPath><g clip-path="url(#p.0)"><path fill="#000000" fill-opacity="0.0" d="m0 0l169.58792 0l0 100.0l-169.58792 0z" fill-rule="evenodd"/><path fill="#f3f3f3" d="m80.71391 54.9225l50.696793 -50.696793l28.893753 0l-79.590546 79.59055z" fill-rule="evenodd"/><path stroke="#f3f3f3" stroke-width="1.0" stroke-linejoin="round" stroke-linecap="butt" d="m80.71391 54.9225l50.696793 -50.696793l28.893753 0l-79.590546 79.59055z" fill-rule="evenodd"/><path fill="#f3f3f3" d="m81.52493 83.8164l-22.645668 -22.645668l44.787407 0.44094467z" fill-rule="evenodd"/><path stroke="#f3f3f3" stroke-width="1.0" stroke-linejoin="round" stroke-linecap="butt" d="m81.52493 83.8164l-22.645668 -22.645668l44.787407 0.44094467z" fill-rule="evenodd"/><path fill="#f3f3f3" d="m32.46512 4.226122l48.24922 50.696793l0 28.893757l-75.74803 -79.59055z" fill-rule="evenodd"/><path stroke="#f3f3f3" stroke-width="1.0" stroke-linejoin="round" stroke-linecap="butt" d="m32.46512 4.226122l48.24922 50.696793l0 28.893757l-75.74803 -79.59055z" fill-rule="evenodd"/></g></svg>