<svg version="1.1" viewBox="0.0 0.0 923.0761154855643 105.1758530183727" fill="none" stroke="none" stroke-linecap="square" stroke-miterlimit="10" xmlns:xlink="http://www.w3.org/1999/xlink" xmlns="http://www.w3.org/2000/svg"><clipPath id="p.0"><path d="m0 0l923.0761 0l0 105.17585l-923.0761 0l0 -105.17585z" clip-rule="nonzero"/></clipPath><g clip-path="url(#p.0)"><path fill="#1a1a1a" d="m0 0l923.0761 0l0 105.17585l-923.0761 0z" fill-rule="evenodd"/><path fill="#ffffff" d="m33.622646 15.690885c1.4436646 0 2.3996048 0.18838406 2.8678207 0.5651579c0.4812088 0.37677193 0.7218323 1.1746426 0.7218323 2.393608l0 43.517136c0 1.2189674 -0.24062347 2.016838 -0.7218323 2.393608c-0.46821594 0.37677002 -1.4241562 0.565155 -2.8678207 0.565155l-11.861469 0l0 -49.434666zm-22.766996 -7.2473154l0 63.929295l26.122541 0c7.4394455 0 11.159145 -2.997551 11.159145 -8.992653l0 -45.943985c0 -5.995105 -3.7196999 -8.992655 -11.159145 -8.992655z" fill-rule="evenodd"/><path fill="#ffffff" d="m76.29518 16.405642l6.828148 33.70999l-13.051521 0l6.2233734 -33.70999zm-7.784088 -7.9620724l-13.305138 63.929295l10.788475 0l2.7507706 -14.8104515l15.821793 0l3.004387 14.8104515l10.905525 0l-14.261078 -63.929295zm32.00332 0l13.539246 63.929295l15.334068 0l13.558746 -63.929295l-11.159134 0l-10.183701 55.45193l-9.949585 -55.45193z" fill-rule="evenodd"/><path fill="#ffffff" d="m150.73866 8.443569l0 63.929295l10.788467 0l0 -63.929295z" fill-rule="evenodd"/><path fill="#ffffff" d="m197.9551 15.690885c1.4436646 0 2.3996124 0.18838406 2.8678284 0.5651579c0.48121643 0.37677193 0.7218323 1.1746426 0.7218323 2.393608l0 43.517136c0 1.2189674 -0.24061584 2.016838 -0.7218323 2.393608c-0.46821594 0.37677002 -1.4241638 0.565155 -2.8678284 0.565155l-11.861465 0l0 -49.434666zm-22.766998 -7.2473154l0 63.929295l26.122543 0c7.4394226 0 11.159149 -2.997551 11.159149 -8.992653l0 -45.943985c0 -5.995105 -3.7197266 -8.992655 -11.159149 -8.992655z" fill-rule="evenodd"/><path fill="#ffffff" d="m263.04114 15.890351c1.4436646 0 2.3995972 0.18838406 2.8678284 0.5651579c0.4812317 0.37677383 0.7218323 1.1801815 0.7218323 2.4102306l0 18.36762c0 1.2300491 -0.24060059 2.0500832 -0.7218323 2.4600983c-0.4682312 0.41001892 -1.4241638 0.61502457 -2.8678284 0.61502457l-10.554367 0l0 -24.418133zm-21.342834 -7.446782l0 63.929295l10.788467 0l0 -24.71733l13.792862 0c7.426422 0 11.139618 -2.9975548 11.139618 -8.992657l0 -21.226652c0 -5.995105 -3.7131958 -8.992655 -11.139618 -8.992655z" fill-rule="evenodd"/><path fill="#ffffff" d="m287.98203 8.443569l0 63.929295l10.788483 0l0 -63.929295z" fill-rule="evenodd"/><path fill="#ffffff" d="m312.17786 8.443569l0 63.929295l10.788483 0l0 -63.929295zm26.980927 0l-15.470612 32.06438l15.236511 31.864914l11.744415 0l-15.704742 -31.864914l15.821808 -32.06438z" fill-rule="evenodd"/><path fill="#ffffff" d="m358.20532 8.443569l0 63.929295l32.61905 0l0 -7.463402l-21.694 0l0 -21.841679l17.245941 0l0 -7.4634056l-17.245941 0l0 -19.714027l20.855103 0l0 -7.446782z" fill-rule="evenodd"/><path fill="#ffffff" d="m438.0414 15.890351c1.4436646 0 2.3996277 0.18838406 2.8678284 0.5651579c0.4812317 0.37677383 0.7218323 1.1801815 0.7218323 2.4102306l0 18.36762c0 1.2300491 -0.24060059 2.0500832 -0.7218323 2.4600983c-0.46820068 0.41001892 -1.4241638 0.61502457 -2.8678284 0.61502457l-10.554352 0l0 -24.418133zm-21.342834 -7.446782l0 63.929295l10.788483 0l0 -24.71733l13.792847 0c7.426422 0 11.139648 -2.9975548 11.139648 -8.992657l0 -21.226652c0 -5.995105 -3.7132263 -8.992655 -11.139648 -8.992655z" fill-rule="evenodd"/><path fill="#ffffff" d="m462.00684 8.443569l0 63.929295l10.788483 0l0 -28.091656l15.958374 0l0 28.091656l10.788452 0l0 -63.929295l-10.788452 0l0 28.390858l-15.958374 0l0 -28.390858z" fill-rule="evenodd"/><path fill="#ffffff" d="m532.72784 15.890351c1.4436646 0 2.406128 0.18838406 2.887329 0.5651579c0.4812622 0.37677383 0.7218628 1.1801815 0.7218628 2.4102306l0 43.084953c0 1.2300491 -0.24060059 2.0334625 -0.7218628 2.4102287c-0.48120117 0.36569214 -1.4436646 0.5485382 -2.887329 0.5485382l-6.9451904 0c-1.4436646 0 -2.3865967 -0.18284607 -2.8287964 -0.5485382c-0.42919922 -0.3767662 -0.6437988 -1.1801796 -0.6437988 -2.4102287l0 -43.084953c0 -1.2300491 0.21459961 -2.0334568 0.6437988 -2.4102306c0.4421997 -0.37677383 1.3851318 -0.5651579 2.8287964 -0.5651579zm-10.066589 -7.446782c-7.5045166 0 -11.256714 2.99755 -11.256714 8.992655l0 45.943985c0 5.995102 3.7521973 8.992653 11.256714 8.992653l13.305115 0c7.439392 0 11.159119 -2.997551 11.159119 -8.992653l0 -45.943985c0 -5.995105 -3.7197266 -8.992655 -11.159119 -8.992655z" fill-rule="evenodd"/><path fill="#ffffff" d="m553.4774 8.443569l0 7.446782l12.583313 0l0 56.482513l10.788452 0l0 -56.482513l12.583313 0l0 -7.446782z" fill-rule="evenodd"/><path fill="#ffffff" d="m616.99164 15.890351c1.4437256 0 2.406128 0.18838406 2.8873901 0.5651579c0.48120117 0.37677383 0.72180176 1.1801815 0.72180176 2.4102306l0 43.084953c0 1.2300491 -0.24060059 2.0334625 -0.72180176 2.4102287c-0.4812622 0.36569214 -1.4436646 0.5485382 -2.8873901 0.5485382l-6.9451904 0c-1.4436646 0 -2.3865967 -0.18284607 -2.8287964 -0.5485382c-0.42919922 -0.3767662 -0.6437988 -1.1801796 -0.6437988 -2.4102287l0 -43.084953c0 -1.2300491 0.21459961 -2.0334568 0.6437988 -2.4102306c0.4421997 -0.37677383 1.3851318 -0.5651579 2.8287964 -0.5651579zm-10.066589 -7.446782c-7.5044556 0 -11.256714 2.99755 -11.256714 8.992655l0 45.943985c0 5.995102 3.7522583 8.992653 11.256714 8.992653l13.305115 0c7.439392 0 11.159119 -2.997551 11.159119 -8.992653l0 -45.943985c0 -5.995105 -3.7197266 -8.992655 -11.159119 -8.992655z" fill-rule="evenodd"/><path fill="#ffffff" d="m653.91425 8.443569c-7.4264526 0 -11.139648 2.99755 -11.139648 8.992655l0 45.943985c0 6.061592 3.7131958 9.092392 11.139648 9.092392l12.836914 0c7.4263916 0 11.139648 -3.0307999 11.139648 -9.092392l0 -23.886219l-16.894836 0l0 7.147583l5.989258 0l0 15.624943c0 1.2189713 -0.24060059 2.016838 -0.72180176 2.393608c-0.4812622 0.37677002 -1.4371948 0.565155 -2.8677979 0.565155l-6.1258545 0c-1.4306641 0 -2.3865967 -0.18838501 -2.8677979 -0.565155c-0.4812622 -0.37677002 -0.7218628 -1.1746368 -0.7218628 -2.393608l0 -43.616867c0 -1.2189655 0.24060059 -2.0168362 0.7218628 -2.393608c0.48120117 -0.37677383 1.4371338 -0.5651579 2.8677979 -0.5651579l6.1258545 0c1.430603 0 2.3865356 0.18838406 2.8677979 0.5651579c0.48120117 0.37677193 0.72180176 1.1746426 0.72180176 2.393608l0 8.477364l10.905579 0l0 -9.69079c0 -5.995105 -3.7132568 -8.992655 -11.139648 -8.992655z" fill-rule="evenodd"/><path fill="#ffffff" d="m710.4905 15.890351c1.4436646 0 2.3995972 0.18838406 2.8677979 0.5651579c0.4812622 0.37677383 0.7218628 1.1801815 0.7218628 2.4102306l0 17.353662c0 1.2300491 -0.24060059 2.0334587 -0.7218628 2.4102325c-0.46820068 0.36568832 -1.4241333 0.5485344 -2.8677979 0.5485344l-10.554382 0l0 -23.287819zm-21.342834 -7.446782l0 63.929295l10.788452 0l0 -25.831024l5.8917236 0l11.256714 25.831024l11.627319 0l-11.86145 -26.047115c5.345459 -0.74245834 8.018188 -3.7012253 8.018188 -8.876297l0 -20.013227c0 -5.995105 -3.7131958 -8.992655 -11.139648 -8.992655z" fill-rule="evenodd"/><path fill="#ffffff" d="m752.923 16.405642l6.828186 33.70999l-13.051575 0l6.2233887 -33.70999zm-7.7840576 -7.9620724l-13.305176 63.929295l10.788513 0l2.7507324 -14.8104515l15.821838 0l3.0043335 14.8104515l10.905579 0l-14.261108 -63.929295z" fill-rule="evenodd"/><path fill="#ffffff" d="m804.10364 15.890351c1.4436646 0 2.3995972 0.18838406 2.8677979 0.5651579c0.48120117 0.37677383 0.72180176 1.1801815 0.72180176 2.4102306l0 18.36762c0 1.2300491 -0.24060059 2.0500832 -0.72180176 2.4600983c-0.46820068 0.41001892 -1.4241333 0.61502457 -2.8677979 0.61502457l-10.554382 0l0 -24.418133zm-21.342896 -7.446782l0 63.929295l10.788513 0l0 -24.71733l13.792847 0c7.4263916 0 11.139648 -2.9975548 11.139648 -8.992657l0 -21.226652c0 -5.995105 -3.7132568 -8.992655 -11.139648 -8.992655z" fill-rule="evenodd"/><path fill="#ffffff" d="m828.06903 8.443569l0 63.929295l10.788452 0l0 -28.091656l15.958374 0l0 28.091656l10.788513 0l0 -63.929295l-10.788513 0l0 28.390858l-15.958374 0l0 -28.390858z" fill-rule="evenodd"/><path fill="#ffffff" d="m872.31635 8.443569l16.055908 43.699978l0 20.229317l10.905518 0l0 -20.229317l15.334106 -43.699978l-11.022583 0l-9.832581 35.23924l-10.417786 -35.23924z" fill-rule="evenodd"/></g></svg>