<svg version="1.1" viewBox="0.0 0.0 717.1102362204724 101.44881889763779" fill="none" stroke="none" stroke-linecap="square" stroke-miterlimit="10" xmlns:xlink="http://www.w3.org/1999/xlink" xmlns="http://www.w3.org/2000/svg"><clipPath id="p.0"><path d="m0 0l717.1102 0l0 101.44882l-717.1102 0l0 -101.44882z" clip-rule="nonzero"/></clipPath><g clip-path="url(#p.0)"><path fill="#1a1a1a" d="m0 0l717.1102 0l0 101.44882l-717.1102 0z" fill-rule="evenodd"/><path fill="#ffffff" d="m10.855646 8.443569l0 63.929295l10.925037 0l0 -28.191387l17.24595 0l0 -7.2473145l-17.24595 0l0 -21.043812l21.811056 0l0 -7.446782z" fill-rule="evenodd"/><path fill="#ffffff" d="m71.99306 15.890351c1.4436722 0 2.3996124 0.18838406 2.8678284 0.5651579c0.48122406 0.37677383 0.7218323 1.1801815 0.7218323 2.4102306l0 17.353662c0 1.2300491 -0.24060822 2.0334587 -0.7218323 2.4102325c-0.46821594 0.36568832 -1.4241562 0.5485344 -2.8678284 0.5485344l-10.554363 0l0 -23.287819zm-21.342834 -7.446782l0 63.929295l10.788471 0l0 -25.831024l5.89172 0l11.256683 25.831024l11.627365 0l-11.861473 -26.047115c5.3454666 -0.74245834 8.018204 -3.7012253 8.018204 -8.876297l0 -20.013227c0 -5.995105 -3.713211 -8.992655 -11.139641 -8.992655z" fill-rule="evenodd"/><path fill="#ffffff" d="m99.09149 8.443569l0 63.929295l10.788475 0l0 -63.929295z" fill-rule="evenodd"/><path fill="#ffffff" d="m146.30792 15.690885c1.4436646 0 2.3996124 0.18838406 2.8678284 0.5651579c0.48121643 0.37677193 0.7218323 1.1746426 0.7218323 2.393608l0 43.517136c0 1.2189674 -0.24061584 2.016838 -0.7218323 2.393608c-0.46821594 0.37677002 -1.4241638 0.565155 -2.8678284 0.565155l-11.861465 0l0 -49.434666zm-22.76699 -7.2473154l0 63.929295l26.122536 0c7.4394226 0 11.159149 -2.997551 11.159149 -8.992653l0 -45.943985c0 -5.995105 -3.7197266 -8.992655 -11.159149 -8.992655z" fill-rule="evenodd"/><path fill="#ffffff" d="m188.98047 16.405642l6.8281555 33.70999l-13.051514 0l6.223358 -33.70999zm-7.784088 -7.9620724l-13.30513 63.929295l10.788483 0l2.750763 -14.8104515l15.821793 0l3.0043793 14.8104515l10.905533 0l-14.261078 -63.929295z" fill-rule="evenodd"/><path fill="#ffffff" d="m230.57986 8.443569l0 7.446782l12.583298 0l0 56.482513l10.788467 0l0 -56.482513l12.583313 0l0 -7.446782z" fill-rule="evenodd"/><path fill="#ffffff" d="m294.69888 15.890351c1.4436646 0 2.3995972 0.18838406 2.8678284 0.5651579c0.48120117 0.37677383 0.7218323 1.1801815 0.7218323 2.4102306l0 17.353662c0 1.2300491 -0.2406311 2.0334587 -0.7218323 2.4102325c-0.4682312 0.36568832 -1.4241638 0.5485344 -2.8678284 0.5485344l-10.554382 0l0 -23.287819zm-21.342834 -7.446782l0 63.929295l10.788452 0l0 -25.831024l5.8917236 0l11.256683 25.831024l11.62738 0l-11.861481 -26.047115c5.345459 -0.74245834 8.018188 -3.7012253 8.018188 -8.876297l0 -20.013227c0 -5.995105 -3.7131958 -8.992655 -11.139618 -8.992655z" fill-rule="evenodd"/><path fill="#ffffff" d="m321.7973 8.443569l0 63.929295l10.788483 0l0 -63.929295z" fill-rule="evenodd"/><path fill="#ffffff" d="m368.7796 15.690885c1.4306641 0 2.3865967 0.18838406 2.8678284 0.5651579c0.4812317 0.37677193 0.7218323 1.1746426 0.7218323 2.393608l0 14.610985c0 1.2189674 -0.24060059 2.016838 -0.7218323 2.393608c-0.4812317 0.37677383 -1.4371643 0.56515884 -2.8678284 0.56515884l-11.998016 0l0 -20.528519zm0 27.775833c1.4306641 0 2.3865967 0.18838882 2.8678284 0.56515884c0.4812317 0.37677002 0.7218323 1.1746368 0.7218323 2.393608l0 15.7413025c0 1.2189674 -0.24060059 2.016838 -0.7218323 2.393608c-0.4812317 0.37677002 -1.4371643 0.565155 -2.8678284 0.565155l-11.998016 0l0 -21.658833zm-22.786499 -35.023148l0 63.929295l26.024994 0c7.5044556 0 11.256683 -2.997551 11.256683 -8.992653l0 -17.453396c0 -3.2690468 -1.5932312 -5.247097 -4.7796936 -5.9341545c3.1864624 -0.6094856 4.7796936 -2.7205162 4.7796936 -6.333088l0 -16.223349c0 -5.995105 -3.7522278 -8.992655 -11.256683 -8.992655z" fill-rule="evenodd"/><path fill="#ffffff" d="m394.666 8.443569l0 54.93664c0 5.995102 3.758728 8.992653 11.276215 8.992653l13.305115 0c7.5044556 0 11.256683 -2.997551 11.256683 -8.992653l0 -54.93664l-10.905518 0l0 53.507126c0 1.2300491 -0.22109985 2.0334625 -0.66329956 2.4102287c-0.4421997 0.36569214 -1.4176636 0.5485382 -2.926361 0.5485382l-6.8476562 0c-1.4306641 0 -2.3865967 -0.18284607 -2.8678284 -0.5485382c-0.48120117 -0.3767662 -0.7218323 -1.1801796 -0.7218323 -2.4102287l0 -53.507126z" fill-rule="evenodd"/><path fill="#ffffff" d="m436.98428 8.443569l0 7.446782l12.583282 0l0 56.482513l10.788483 0l0 -56.482513l12.583313 0l0 -7.446782z" fill-rule="evenodd"/><path fill="#ffffff" d="m479.76044 8.443569l0 63.929295l32.61908 0l0 -7.463402l-21.69403 0l0 -21.841679l17.245941 0l0 -7.4634056l-17.245941 0l0 -19.714027l20.855103 0l0 -7.446782z" fill-rule="evenodd"/><path fill="#ffffff" d="m559.59656 15.890351c1.4436646 0 2.3995972 0.18838406 2.8677979 0.5651579c0.4812622 0.37677383 0.7218628 1.1801815 0.7218628 2.4102306l0 18.36762c0 1.2300491 -0.24060059 2.0500832 -0.7218628 2.4600983c-0.46820068 0.41001892 -1.4241333 0.61502457 -2.8677979 0.61502457l-10.554382 0l0 -24.418133zm-21.342834 -7.446782l0 63.929295l10.788452 0l0 -24.71733l13.792847 0c7.4264526 0 11.139648 -2.9975548 11.139648 -8.992657l0 -21.226652c0 -5.995105 -3.7131958 -8.992655 -11.139648 -8.992655z" fill-rule="evenodd"/><path fill="#ffffff" d="m599.8715 16.405642l6.828125 33.70999l-13.051514 0l6.2233887 -33.70999zm-7.7841187 -7.9620724l-13.305115 63.929295l10.788452 0l2.7507935 -14.8104515l15.821777 0l3.0043945 14.8104515l10.905518 0l-14.261047 -63.929295z" fill-rule="evenodd"/><path fill="#ffffff" d="m640.2637 8.443569c-7.4264526 0 -11.139648 2.99755 -11.139648 8.992655l0 45.943985c0 6.061592 3.7131958 9.092392 11.139648 9.092392l12.836914 0c7.4263916 0 11.139587 -3.0307999 11.139587 -9.092392l0 -23.886219l-16.894775 0l0 7.147583l5.989258 0l0 15.624943c0 1.2189713 -0.24060059 2.016838 -0.72180176 2.393608c-0.4812622 0.37677002 -1.4371948 0.565155 -2.867859 0.565155l-6.1257935 0c-1.4306641 0 -2.3865967 -0.18838501 -2.867859 -0.565155c-0.48120117 -0.37677002 -0.72180176 -1.1746368 -0.72180176 -2.393608l0 -43.616867c0 -1.2189655 0.24060059 -2.0168362 0.72180176 -2.393608c0.4812622 -0.37677383 1.4371948 -0.5651579 2.867859 -0.5651579l6.1257935 0c1.4306641 0 2.3865967 0.18838406 2.867859 0.5651579c0.48120117 0.37677193 0.72180176 1.1746426 0.72180176 2.393608l0 8.477364l10.905518 0l0 -9.69079c0 -5.995105 -3.7131958 -8.992655 -11.139587 -8.992655z" fill-rule="evenodd"/><path fill="#ffffff" d="m675.4971 8.443569l0 63.929295l32.61902 0l0 -7.463402l-21.69403 0l0 -21.841679l17.245972 0l0 -7.4634056l-17.245972 0l0 -19.714027l20.855164 0l0 -7.446782z" fill-rule="evenodd"/></g></svg>