<svg version="1.1" viewBox="0.0 0.0 1357.028871391076 284.2257217847769" fill="none" stroke="none" stroke-linecap="square" stroke-miterlimit="10" xmlns:xlink="http://www.w3.org/1999/xlink" xmlns="http://www.w3.org/2000/svg"><clipPath id="p.0"><path d="m0 0l1357.0289 0l0 284.2257l-1357.0289 0l0 -284.2257z" clip-rule="nonzero"/></clipPath><g clip-path="url(#p.0)"><path fill="#1a1a1a" d="m0 0l1357.0289 0l0 284.2257l-1357.0289 0z" fill-rule="evenodd"/><path fill="#ffffff" d="m65.050964 193.30411l3.6867828 33.867477l-7.385128 0l3.6983452 -33.867477zm-6.4720993 -18.655807l-10.216667 80.11749l10.008636 0l1.5602379 -14.494141l10.297565 0l1.5602341 14.494141l10.228226 0l-10.5056 -80.11749z" fill-rule="evenodd"/><path fill="#ffffff" d="m98.20113 174.6483l0 80.11749l10.1588745 0l0 -32.37091l11.857803 0l0 -12.464554l-11.857803 0l0 -22.038452l14.134598 0l0 -13.243576z" fill-rule="evenodd"/><path fill="#ffffff" d="m142.0895 187.89188c1.2327881 0 1.8491669 1.0455475 1.8491669 3.1366272l0 18.020294c0 1.0933838 -0.14253235 1.872406 -0.42762756 2.3370972c-0.2850952 0.4510193 -0.75894165 0.67652893 -1.4215393 0.67652893l-5.466614 0l0 -24.170547zm-15.556145 -13.243576l0 80.11749l10.089531 0l0 -29.972305l1.7798309 0l7.0961914 29.972305l10.863876 0l-7.9514313 -30.484833c3.7830658 -1.5034027 5.674637 -5.9521027 5.674637 -13.346085l0 -22.427979c0 -9.239059 -2.981781 -13.858597 -8.945358 -13.858597z" fill-rule="evenodd"/><path fill="#ffffff" d="m175.03403 187.89188c1.2327881 0 1.8491669 1.0455475 1.8491669 3.1366272l0 47.35707c0 2.1047516 -0.6163788 3.157135 -1.8491669 3.157135l-3.4094086 0c-1.2790375 0 -1.9185181 -1.0523834 -1.9185181 -3.157135l0 -47.35707c0 -2.0910797 0.6394806 -3.1366272 1.9185181 -3.1366272zm-6.460541 -13.243576c-6.0098114 0 -9.014709 4.6195374 -9.014709 13.858597l0 52.277283c0 9.32106 3.004898 13.981613 9.014709 13.981613l9.511658 0c5.971298 0 8.956924 -4.660553 8.956924 -13.981613l0 -52.277283c0 -9.239059 -2.9856262 -13.858597 -8.956924 -13.858597z" fill-rule="evenodd"/><path fill="#ffffff" d="m193.13896 174.6483l0 80.11749l9.234299 0l0 -47.9926l9.869934 47.9926l9.095612 0l0 -80.11749l-9.303635 0l0 47.869583l-9.731262 -47.869583z" fill-rule="evenodd"/><path fill="#ffffff" d="m224.81738 174.6483l0 13.243576l8.228806 0l0 66.87392l10.1588745 0l0 -66.87392l8.309708 0l0 -13.243576z" fill-rule="evenodd"/><path fill="#ffffff" d="m267.76852 174.6483l0 80.11749l24.640167 0l0 -13.2230835l-14.481293 0l0 -20.910904l11.857788 0l0 -13.2230835l-11.857788 0l0 -19.516846l13.915009 0l0 -13.243576z" fill-rule="evenodd"/><path fill="#ffffff" d="m296.8108 174.6483l0 80.11749l9.234283 0l0 -47.9926l9.869934 47.9926l9.095612 0l0 -80.11749l-9.303619 0l0 47.869583l-9.731262 -47.869583z" fill-rule="evenodd"/><path fill="#ffffff" d="m347.58188 187.01033c1.2789917 0 1.9185181 1.0455475 1.9185181 3.1366425l0 49.120132c0 2.1047668 -0.63952637 3.1571503 -1.9185181 3.1571503l-5.6052856 0l0 -55.413925zm-15.764191 -12.36203l0 80.11749l18.826874 0c6.009796 0 9.014709 -4.660553 9.014709 -13.981613l0 -52.277283c0 -9.239059 -3.0049133 -13.858597 -9.014709 -13.858597z" fill-rule="evenodd"/><path fill="#ffffff" d="m394.73126 187.01033c1.2790222 0 1.9185181 1.0455475 1.9185181 3.1366425l0 49.120132c0 2.1047668 -0.63949585 3.1571503 -1.9185181 3.1571503l-5.6052856 0l0 -55.413925zm-15.76416 -12.36203l0 80.11749l18.826874 0c6.009796 0 9.014679 -4.660553 9.014679 -13.981613l0 -52.277283c0 -9.239059 -3.0048828 -13.858597 -9.014679 -13.858597z" fill-rule="evenodd"/><path fill="#ffffff" d="m412.90906 174.6483l0 80.11749l24.640198 0l0 -13.2230835l-14.481323 0l0 -20.910904l11.857819 0l0 -13.2230835l-11.857819 0l0 -19.516846l13.915009 0l0 -13.243576z" fill-rule="evenodd"/><path fill="#ffffff" d="m439.18918 174.6483l10.008636 80.11749l12.424103 0l9.950836 -80.11749l-10.517151 0l-5.674652 59.45259l-5.616852 -59.45259z" fill-rule="evenodd"/><path fill="#ffffff" d="m475.25418 174.6483l0 80.11749l24.640198 0l0 -13.2230835l-14.481323 0l0 -20.910904l11.857788 0l0 -13.2230835l-11.857788 0l0 -19.516846l13.915009 0l0 -13.243576z" fill-rule="evenodd"/><path fill="#ffffff" d="m504.29648 174.6483l0 80.11749l23.079987 0l0 -13.2230835l-12.9904175 0l0 -66.89441z" fill-rule="evenodd"/><path fill="#ffffff" d="m545.8384 187.89188c1.232727 0 1.8491211 1.0455475 1.8491211 3.1366272l0 47.35707c0 2.1047516 -0.61639404 3.157135 -1.8491211 3.157135l-3.4094238 0c-1.2790527 0 -1.9185181 -1.0523834 -1.9185181 -3.157135l0 -47.35707c0 -2.0910797 0.63946533 -3.1366272 1.9185181 -3.1366272zm-6.4605713 -13.243576c-6.0098267 0 -9.014709 4.6195374 -9.014709 13.858597l0 52.277283c0 9.32106 3.0048828 13.981613 9.014709 13.981613l9.511658 0c5.9713135 0 8.956909 -4.660553 8.956909 -13.981613l0 -52.277283c0 -9.239059 -2.9855957 -13.858597 -8.956909 -13.858597z" fill-rule="evenodd"/><path fill="#ffffff" d="m579.49945 187.89188c1.2327881 0 1.8491821 1.0455475 1.8491821 3.1366272l0 19.393845c0 2.1047668 -0.61639404 3.1571503 -1.8491821 3.1571503l-5.466614 0l0 -25.687622zm-15.556152 -13.243576l0 80.11749l10.089539 0l0 -27.963226l8.5177 0c5.963623 0 8.945374 -4.6605377 8.945374 -13.981613l0 -24.314056c0 -9.239059 -2.9817505 -13.858597 -8.945374 -13.858597z" fill-rule="evenodd"/><path fill="#ffffff" d="m596.323 174.6483l0 80.11749l24.640198 0l0 -13.2230835l-14.481323 0l0 -20.910904l11.857788 0l0 -13.2230835l-11.857788 0l0 -19.516846l13.915039 0l0 -13.243576z" fill-rule="evenodd"/><path fill="#ffffff" d="m640.92145 187.89188c1.2327881 0 1.8491821 1.0455475 1.8491821 3.1366272l0 18.020294c0 1.0933838 -0.14251709 1.872406 -0.4276123 2.3370972c-0.2850952 0.4510193 -0.75891113 0.67652893 -1.4215698 0.67652893l-5.466614 0l0 -24.170547zm-15.556152 -13.243576l0 80.11749l10.089539 0l0 -29.972305l1.7798462 0l7.0961914 29.972305l10.863892 0l-7.951477 -30.484833c3.783142 -1.5034027 5.6746826 -5.9521027 5.6746826 -13.346085l0 -22.427979c0 -9.239059 -2.9818115 -13.858597 -8.945374 -13.858597z" fill-rule="evenodd"/><path fill="#ffffff" d="m671.37854 174.6483l0 80.11749l23.079956 0l0 -13.2230835l-12.9904175 0l0 -66.89441z" fill-rule="evenodd"/><path fill="#ffffff" d="m697.94214 174.6483l0 80.11749l10.077942 0l0 -80.11749z" fill-rule="evenodd"/><path fill="#ffffff" d="m711.8603 174.6483l10.008667 80.11749l12.424072 0l9.950867 -80.11749l-10.517151 0l-5.6746826 59.45259l-5.6168213 -59.45259z" fill-rule="evenodd"/><path fill="#ffffff" d="m748.1449 174.6483l0 80.11749l10.077942 0l0 -80.11749z" fill-rule="evenodd"/><path fill="#ffffff" d="m764.8252 174.6483l0 80.11749l9.234314 0l0 -47.9926l9.869934 47.9926l9.095642 0l0 -80.11749l-9.30365 0l0 47.869583l-9.731262 -47.869583z" fill-rule="evenodd"/><path fill="#ffffff" d="m807.93384 174.6483c-5.963623 0 -8.945374 4.6195374 -8.945374 13.858597l0 52.400284c0 9.239075 2.9817505 13.858612 8.945374 13.858612l9.153381 0c5.9712524 0 8.956909 -4.6195374 8.956909 -13.858612l0 -29.213776l-13.70697 0l0 11.952026l3.5480957 0l0 15.621674c0 1.1753998 -0.14251709 1.9954224 -0.4276123 2.4601135c-0.2850952 0.4646759 -0.78204346 0.69703674 -1.4909058 0.69703674l-2.9124756 0c-0.70880127 0 -1.2058105 -0.23236084 -1.4908447 -0.69703674c-0.2850952 -0.46469116 -0.42767334 -1.2847137 -0.42767334 -2.4601135l0 -49.120132c0 -2.091095 0.63952637 -3.1366425 1.9185181 -3.1366425l2.9124756 0c1.2789917 0 1.9185181 1.0455475 1.9185181 3.1366425l0 10.45546l10.1588745 0l0 -12.095535c0 -9.239059 -2.9856567 -13.858597 -8.956909 -13.858597z" fill-rule="evenodd"/><path fill="#ffffff" d="m844.6449 174.6483l0 80.11749l10.078003 0l0 -80.11749z" fill-rule="evenodd"/><path fill="#ffffff" d="m861.32526 174.6483l0 80.11749l9.234314 0l0 -47.9926l9.869934 47.9926l9.095581 0l0 -80.11749l-9.303589 0l0 47.869583l-9.731262 -47.869583z" fill-rule="evenodd"/><path fill="#ffffff" d="m916.64734 174.6483c-5.963562 0 -8.945374 4.6195374 -8.945374 13.858597l0 18.266296c0 9.403076 2.7930298 14.104614 8.379028 14.104614l6.240967 0c0.71655273 0 1.213501 0.23234558 1.4909058 0.69703674c0.2850952 0.4646759 0.4276123 1.2437134 0.4276123 2.3370972l0 14.473633c0 2.1047516 -0.63952637 3.157135 -1.9185181 3.157135l-2.4039307 0c-1.2789917 0 -1.9185181 -1.0523834 -1.9185181 -3.157135l0 -7.933853l-10.1588745 0l0 10.3324585c0 9.32106 3.0049438 13.981613 9.014709 13.981613l8.598633 0c5.963623 0 8.945374 -4.660553 8.945374 -13.981613l0 -18.901825c0 -4.5238647 -0.66259766 -7.940689 -1.987854 -10.2504425c-1.3252563 -2.3097687 -3.501892 -3.4646606 -6.529907 -3.4646606l-6.1137695 0c-0.7088623 0 -1.2058716 -0.23233032 -1.4909058 -0.6970215c-0.2850952 -0.46469116 -0.4276123 -1.2437286 -0.4276123 -2.3371124l0 -14.104614c0 -2.0910797 0.63946533 -3.1366272 1.9185181 -3.1366272l2.4154663 0c1.2789917 0 1.9185181 1.0455475 1.9185181 3.1366272l0 7.933853l10.1588745 0l0 -10.45546c0 -9.239059 -2.9856567 -13.858597 -8.956909 -13.858597z" fill-rule="evenodd"/><path fill="#ffffff" d="m953.78845 193.30411l3.6868286 33.867477l-7.385132 0l3.6983032 -33.867477zm-6.472107 -18.655807l-10.216614 80.11749l10.008606 0l1.5602417 -14.494141l10.297546 0l1.5602417 14.494141l10.2282715 0l-10.505615 -80.11749z" fill-rule="evenodd"/><path fill="#ffffff" d="m974.2282 174.6483l0 80.11749l9.234314 0l0 -47.9926l9.869934 47.9926l9.095581 0l0 -80.11749l-9.303589 0l0 47.869583l-9.731262 -47.869583z" fill-rule="evenodd"/><path fill="#ffffff" d="m1035.3058 193.30411l3.6867676 33.867477l-7.385132 0l3.6983643 -33.867477zm-6.472046 -18.655807l-10.216675 80.11749l10.008667 0l1.5601807 -14.494141l10.297607 0l1.5601807 14.494141l10.2282715 0l-10.505615 -80.11749z" fill-rule="evenodd"/><path fill="#ffffff" d="m1055.7456 174.6483l0 80.11749l9.234253 0l0 -47.9926l9.869995 47.9926l9.095581 0l0 -80.11749l-9.303711 0l0 47.869583l-9.731201 -47.869583z" fill-rule="evenodd"/><path fill="#ffffff" d="m1087.424 174.6483l0 13.243576l8.228882 0l0 66.87392l10.158813 0l0 -66.87392l8.309692 0l0 -13.243576z" fill-rule="evenodd"/><path fill="#ffffff" d="m1132.8625 187.89188c1.2327881 0 1.8491211 1.0455475 1.8491211 3.1366272l0 47.35707c0 2.1047516 -0.616333 3.157135 -1.8491211 3.157135l-3.4094238 0c-1.2790527 0 -1.918457 -1.0523834 -1.918457 -3.157135l0 -47.35707c0 -2.0910797 0.6394043 -3.1366272 1.918457 -3.1366272zm-6.4605713 -13.243576c-6.0097656 0 -9.014648 4.6195374 -9.014648 13.858597l0 52.277283c0 9.32106 3.0048828 13.981613 9.014648 13.981613l9.511719 0c5.9713135 0 8.956909 -4.660553 8.956909 -13.981613l0 -52.277283c0 -9.239059 -2.9855957 -13.858597 -8.956909 -13.858597z" fill-rule="evenodd"/><path fill="#ffffff" d="m1150.9675 174.6483l0 80.11749l9.234253 0l0 -47.9926l9.869995 47.9926l9.095581 0l0 -80.11749l-9.303589 0l0 47.869583l-9.731323 -47.869583z" fill-rule="evenodd"/><path fill="#ffffff" d="m1185.6971 174.6483l0 80.11749l10.077881 0l0 -80.11749z" fill-rule="evenodd"/><path fill="#ffffff" d="m1217.5753 187.89188c1.2327881 0 1.8491211 1.0455475 1.8491211 3.1366272l0 47.35707c0 2.1047516 -0.616333 3.157135 -1.8491211 3.157135l-3.4094238 0c-1.2790527 0 -1.918457 -1.0523834 -1.918457 -3.157135l0 -47.35707c0 -2.0910797 0.6394043 -3.1366272 1.918457 -3.1366272zm-6.4605713 -13.243576c-6.0097656 0 -9.014648 4.6195374 -9.014648 13.858597l0 52.277283c0 9.32106 3.0048828 13.981613 9.014648 13.981613l9.511719 0c5.9713135 0 8.956909 -4.660553 8.956909 -13.981613l0 -52.277283c0 -9.239059 -2.9855957 -13.858597 -8.956909 -13.858597z" fill-rule="evenodd"/><path fill="#ffffff" d="m1235.114 236.13048l0 36.901596l3.201416 0l7.0961914 -26.835663l0 -10.065933z" fill-rule="evenodd"/><path fill="#ffffff" d="m1261.1099 174.6483l0 13.243576l8.228882 0l0 66.87392l10.158813 0l0 -66.87392l8.309814 0l0 -13.243576zm27.547852 0l10.078003 39.3002l-10.436279 40.81729l10.794556 0l5.328003 -25.44162l5.258545 25.44162l11.36084 0l-10.944824 -40.81729l9.592651 -39.3002l-10.933228 0l-4.3339844 23.555527l-4.3339844 -23.555527z" fill-rule="evenodd"/><path fill="#ffffff" d="m1323.8031 236.13048l0 18.635315l10.297607 0l0 -18.635315z" fill-rule="evenodd"/><path fill="#ffffff" d="m305.021 8.467194l0 153.39867l21.456665 0l0 -63.19648l19.452057 0l0 63.19648l21.456665 0l0 -153.39867l-21.456665 0l0 64.88434l-19.452057 0l0 -64.88434z" fill-rule="evenodd"/><path fill="#ffffff" d="m381.51758 8.467194l0 153.39867l21.580383 0l0 -153.39867z" fill-rule="evenodd"/><path fill="#ffffff" d="m472.14096 8.467194l0 153.39867l21.580414 0l0 -153.39867z" fill-rule="evenodd"/><path fill="#ffffff" d="m506.96835 8.467194l0 60.2918l20.367767 0l0 -60.2918z" fill-rule="evenodd"/><path fill="#ffffff" d="m540.0945 8.467194l0 153.39867l19.17981 0l0 -102.723724l12.448364 69.43762l16.135803 0l12.4730835 -69.673134l0 102.959236l19.15503 0l0 -153.39867l-23.73346 0l-15.962585 86.82647l-15.962585 -86.82647z" fill-rule="evenodd"/><path fill="#ffffff" d="m660.36816 8.467194l0 153.39867l19.17981 0l0 -102.723724l12.448303 69.43762l16.135803 0l12.4730835 -69.673134l0 102.959236l19.15509 0l0 -153.39867l-23.73346 0l-15.962585 86.82647l-15.962585 -86.82647z" fill-rule="evenodd"/><path fill="#ffffff" d="m753.4244 8.467194l0 153.39867l52.763123 0l0 -25.31784l-31.00946 0l0 -40.03753l25.391602 0l0 -25.31784l-25.391602 0l0 -37.36836l29.796814 0l0 -25.357098z" fill-rule="evenodd"/><path fill="#ffffff" d="m834.02655 8.467194c-12.77002 0 -19.15503 8.844889 -19.15503 26.534672l0 100.32933c0 17.689774 6.38501 26.534668 19.15503 26.534668l19.600586 0c12.78656 0 19.17981 -8.844894 19.17981 -26.534668l0 -55.934776l-29.351318 0l0 22.884193l7.5977173 0l0 29.910385c0 2.250473 -0.30523682 3.820572 -0.91571045 4.7102966c-0.61047363 0.8897095 -1.6746216 1.3345795 -3.192505 1.3345795l-6.2365723 0c-1.5178833 0 -2.5820312 -0.44487 -3.192505 -1.3345795c-0.6104126 -0.88972473 -0.9156494 -2.4598236 -0.9156494 -4.7102966l0 -94.048935c0 -4.00375 1.3693848 -6.0056267 4.1081543 -6.0056267l6.2365723 0c2.7387695 0 4.1082153 2.0018768 4.1082153 6.0056267l0 20.01876l21.753601 0l0 -23.158958c0 -17.689783 -6.3932495 -26.534676 -19.17981 -26.534672z" fill-rule="evenodd"/><path fill="#ffffff" d="m914.62305 44.186947l7.8946533 64.84508l-15.814087 0l7.9194336 -64.84508zm-13.858948 -35.719753l-21.87738 153.39867l21.431885 0l3.3410034 -27.751495l22.05066 0l3.3410034 27.751495l21.9021 0l-22.496094 -153.39867z" fill-rule="evenodd"/><path fill="#ffffff" d="m958.3915 8.467194l0 153.39867l19.773743 0l0 -91.89004l21.134949 91.89004l19.476807 0l0 -153.39867l-19.922241 0l0 91.654526l-20.838013 -91.654526z" fill-rule="evenodd"/><path fill="#ffffff" d="m1031.0764 126.18536l0 35.680496l22.05066 0l0 -35.680496z" fill-rule="evenodd"/><path fill="#000000" fill-opacity="0.0" d="m99.580055 266.07086l557.8267 -1.7007751" fill-rule="evenodd"/><path stroke="#ffffff" stroke-width="8.0" stroke-linejoin="round" stroke-linecap="butt" d="m99.580055 266.07086l557.8267 -1.7007751" fill-rule="evenodd"/><path fill="#ffffff" d="m416.41348 133.42285l0 41.229324l8.214783 0l16.72647 -31.636093l0 -9.593231z" fill-rule="evenodd"/></g></svg>