<svg version="1.1" viewBox="0.0 0.0 206.91863517060366 212.14173228346456" fill="none" stroke="none" stroke-linecap="square" stroke-miterlimit="10" xmlns:xlink="http://www.w3.org/1999/xlink" xmlns="http://www.w3.org/2000/svg"><clipPath id="p.0"><path d="m0 0l206.91864 0l0 212.14174l-206.91864 0l0 -212.14174z" clip-rule="nonzero"/></clipPath><g clip-path="url(#p.0)"><path fill="#000000" fill-opacity="0.0" d="m0 0l206.91864 0l0 212.14174l-206.91864 0z" fill-rule="evenodd"/><path fill="#ffffff" d="m181.44423 85.43328l0 0c-18.508057 25.222458 -52.985657 31.363556 -77.007866 13.716537c-24.022217 -17.647018 -28.492317 -52.399593 -9.984253 -77.62205l0 0c-5.9198227 23.739845 2.505005 48.131546 21.425179 62.03055c18.920181 13.899002 44.70247 14.636276 65.56694 1.8749619z" fill-rule="evenodd"/><path stroke="#ffffff" stroke-width="1.0" stroke-linejoin="round" stroke-linecap="butt" d="m181.44423 85.43328l0 0c-18.508057 25.222458 -52.985657 31.363556 -77.007866 13.716537c-24.022217 -17.647018 -28.492317 -52.399593 -9.984253 -77.62205l0 0c-5.9198227 23.739845 2.505005 48.131546 21.425179 62.03055c18.920181 13.899002 44.70247 14.636276 65.56694 1.8749619z" fill-rule="evenodd"/><path fill="#ffffff" d="m190.38843 120.4596l0 0c-22.195755 35.868065 -70.11186 46.40171 -107.02361 23.527565c-36.91176 -22.87416 -48.84143 -70.49414 -26.645672 -106.36221l0 0c-5.475605 33.32332 10.222553 67.11928 39.646404 85.35319c29.423843 18.23391 66.65261 17.236687 94.02288 -2.5185394z" fill-rule="evenodd"/><path stroke="#ffffff" stroke-width="1.0" stroke-linejoin="round" stroke-linecap="butt" d="m190.38843 120.4596l0 0c-22.195755 35.868065 -70.11186 46.40171 -107.02361 23.527565c-36.91176 -22.87416 -48.84143 -70.49414 -26.645672 -106.36221l0 0c-5.475605 33.32332 10.222553 67.11928 39.646404 85.35319c29.423843 18.23391 66.65261 17.236687 94.02288 -2.5185394z" fill-rule="evenodd"/><path fill="#ffffff" d="m197.92921 161.19919l0 0c-32.823975 48.914154 -98.22566 62.479584 -146.07874 30.29921c-47.85308 -32.180374 -60.036575 -97.92049 -27.212597 -146.83466l0 0c-12.52939 46.339687 5.269659 95.03471 44.341206 121.30966c39.071556 26.274948 90.83356 24.35852 128.95013 -4.7742157z" fill-rule="evenodd"/><path stroke="#ffffff" stroke-width="1.0" stroke-linejoin="round" stroke-linecap="butt" d="m197.92921 161.19919l0 0c-32.823975 48.914154 -98.22566 62.479584 -146.07874 30.29921c-47.85308 -32.180374 -60.036575 -97.92049 -27.212597 -146.83466l0 0c-12.52939 46.339687 5.269659 95.03471 44.341206 121.30966c39.071556 26.274948 90.83356 24.35852 128.95013 -4.7742157z" fill-rule="evenodd"/></g></svg>