<svg version="1.1" viewBox="0.0 0.0 887.3910761154856 422.1469816272966" fill="none" stroke="none" stroke-linecap="square" stroke-miterlimit="10" xmlns:xlink="http://www.w3.org/1999/xlink" xmlns="http://www.w3.org/2000/svg"><clipPath id="p.0"><path d="m0 0l887.39105 0l0 422.14697l-887.39105 0l0 -422.14697z" clip-rule="nonzero"/></clipPath><g clip-path="url(#p.0)"><path fill="#1a1a1a" d="m0 0l887.39105 0l0 422.14697l-887.39105 0z" fill-rule="evenodd"/><path fill="#000000" fill-opacity="0.0" d="m0 -45.632545l782.5512 0l0 191.68503l-782.5512 0z" fill-rule="evenodd"/><path fill="#ffffff" d="m58.859375 191.36745l48.796875 0l0 28.0l-86.65625 0l0 -169.59375l37.859375 0l0 141.59375zm99.19505 0l54.40625 0l0 28.0l-92.53125 0l0 -169.59375l90.390625 0l0 28.0l-52.265625 0l0 41.328125l44.53125 0l0 27.999992l-44.53125 0l0 44.265625zm160.53111 -141.59375l0 28.0l-31.203125 0l0 141.59375l-38.125 0l0 -141.59375l-30.9375 0l0 -28.0l100.265625 0zm11.194916 0l38.9375 0l0 21.328125l-28.0 57.062492l-10.9375 0l0 -78.39062zm119.74249 134.92188l0 -30.65625q0 -3.46875 -1.609375 -4.9375q-1.59375 -1.46875 -5.59375 -1.46875l-23.46875 0q-31.46875 0 -31.46875 -29.859367l0 -38.671875q0 -29.328125 33.59375 -29.328125l32.546875 0q33.59375 0 33.59375 29.328125l0 22.140625l-38.140625 0l0 -16.796875q0 -6.671875 -7.1875 -6.671875l-9.078125 0q-7.1875 0 -7.1875 6.671875l0 29.859375q0 3.46875 1.59375 4.9375q1.59375 1.46875 5.59375 1.46875l22.9375 0q17.0625 0 24.53125 7.3281174q7.46875 7.328125 7.46875 21.734375l0 40.0q0 29.59375 -33.59375 29.59375l-32.265625 0q-33.875 0 -33.875 -29.59375l0 -21.875l38.140625 0l0 16.796875q0 6.671875 7.203125 6.671875l9.0625 0q7.203125 0 7.203125 -6.671875z" fill-rule="nonzero"/><path fill="#000000" fill-opacity="0.0" d="m0 121.07087l863.8425 0l0 315.02362l-863.8425 0z" fill-rule="evenodd"/><path fill="#ffffff" d="m121.265625 275.94586l-38.40625 0l0 -26.671875q0 -6.671875 -6.921875 -6.671875l-10.9375 0q-7.203125 0 -7.203125 6.671875l0 104.0q0 3.734375 1.59375 5.203125q1.609375 1.46875 5.609375 1.46875l10.9375 0q3.71875 0 5.3125 -1.46875q1.609375 -1.46875 1.609375 -5.203125l0 -25.875l38.40625 0l0 29.34375q0 29.328125 -33.875 29.328125l-34.125 0q-33.59375 0 -33.59375 -29.328125l0 -110.9375q0 -29.328125 33.59375 -29.328125l34.125 0q33.875 0 33.875 29.328125l0 30.140625zm52.52652 -59.46875l35.734375 0q33.59375 0 33.59375 29.328125l0 110.671875q0 29.59375 -33.59375 29.59375l-35.734375 0q-33.859375 0 -33.859375 -29.59375l0 -110.671875q0 -29.328125 33.859375 -29.328125zm31.203125 134.92188l0 -100.25q0 -6.671875 -6.9375 -6.671875l-12.796875 0q-7.203125 0 -7.203125 6.671875l0 100.25q0 6.671875 7.203125 6.671875l12.796875 0q6.9375 0 6.9375 -6.671875zm131.99924 -134.92188l34.921875 0l0 169.59375l-34.125 0l-37.0625 -101.59375l0 101.59375l-34.671875 0l0 -169.59375l34.390625 0l36.546875 101.328125l0 -101.328125zm129.59491 0l34.921875 0l0 169.59375l-34.125 0l-37.0625 -101.59375l0 101.59375l-34.671875 0l0 -169.59375l34.390625 0l36.546875 101.328125l0 -101.328125zm96.78241 141.59375l54.40625 0l0 28.0l-92.53125 0l0 -169.59375l90.390625 0l0 28.0l-52.265625 0l0 41.328125l44.53125 0l0 28.0l-44.53125 0l0 44.265625zm171.203 -82.125l-38.40625 0l0 -26.671875q0 -6.671875 -6.921875 -6.671875l-10.9375 0q-7.203125 0 -7.203125 6.671875l0 104.0q0 3.734375 1.59375 5.203125q1.609375 1.46875 5.609375 1.46875l10.9375 0q3.71875 0 5.3125 -1.46875q1.609375 -1.46875 1.609375 -5.203125l0 -25.875l38.40625 0l0 29.34375q0 29.328125 -33.875 29.328125l-34.125 0q-33.59375 0 -33.59375 -29.328125l0 -110.9375q0 -29.328125 33.59375 -29.328125l34.125 0q33.875 0 33.875 29.328125l0 30.140625zm109.323364 -59.46875l0 28.0l-31.203125 0l0 141.59375l-38.125 0l0 -141.59375l-30.9375 0l0 -28.0l100.265625 0z" fill-rule="nonzero"/></g></svg>