<svg version="1.1" viewBox="0.0 0.0 1373.1837270341207 380.5196850393701" fill="none" stroke="none" stroke-linecap="square" stroke-miterlimit="10" xmlns:xlink="http://www.w3.org/1999/xlink" xmlns="http://www.w3.org/2000/svg"><clipPath id="p.0"><path d="m0 0l1373.1837 0l0 380.51968l-1373.1837 0l0 -380.51968z" clip-rule="nonzero"/></clipPath><g clip-path="url(#p.0)"><path fill="#1a1a1a" d="m0 0l1373.1837 0l0 380.51968l-1373.1837 0z" fill-rule="evenodd"/><path fill="#000000" fill-opacity="0.0" d="m221.39896 57.427822l927.9055 0l0 189.29134l-927.9055 0z" fill-rule="evenodd"/><path fill="#ffffff" d="m367.83334 194.42783l-10.53125 0l0 -83.46876l13.1875 0l14.28125 51.734383l14.265625 -51.734383l13.1875 0l0 83.46876l-10.53125 0l0 -61.0625l-11.46875 42.9375l-10.921875 0l-11.46875 -42.8125l0 60.9375zm69.32858 -65.0625l13.0625 0q12.53125 0 12.53125 11.859375l0 24.40625l-26.265625 0l0 15.46875q0 2.265625 0.796875 3.0625q0.8125 0.796875 3.203125 0.796875l6.140625 0q2.390625 0 3.1875 -0.796875q0.8125 -0.796875 0.8125 -3.203125l0 -5.328125l11.734375 0l0 7.0625q0 11.734375 -12.40625 11.734375l-12.796875 0q-12.40625 0 -12.40625 -11.734375l0 -41.46875q0 -11.859375 12.40625 -11.859375zm-0.671875 27.46875l14.40625 0l0 -14.140625q0 -2.265625 -0.734375 -3.0625q-0.734375 -0.796875 -3.140625 -0.796875l-6.53125 0q-2.390625 0 -3.203125 0.796875q-0.796875 0.796875 -0.796875 3.0625l0 14.140625zm60.795044 -27.46875l12.0 0l0 71.734375q0 11.734375 -12.53125 11.734375l-22.265625 0l0 -9.46875l18.796875 0q2.40625 0 3.203125 -0.8125q0.796875 -0.796875 0.796875 -3.0625l0 -11.0625q-1.71875 5.203125 -8.265625 5.203125l-4.796875 0q-12.0 0 -12.0 -11.875l0 -40.53125q0 -11.859375 12.0 -11.859375l4.796875 0q6.546875 0 8.265625 5.203125l0 -5.203125zm-9.0625 54.53125l4.671875 0q2.390625 0 3.390625 -1.0625q1.0 -1.078125 1.0 -3.609375l0 -35.46875q0 -2.53125 -1.0 -3.59375q-1.0 -1.0625 -3.390625 -1.0625l-4.671875 0q-2.390625 0 -3.203125 0.734375q-0.796875 0.734375 -0.796875 3.125l0 37.0625q0 2.265625 0.796875 3.078125q0.8125 0.796875 3.203125 0.796875zm57.060608 -54.53125l12.0 0l0 65.0625l-12.0 0l0 -5.203125q-1.71875 5.203125 -8.265625 5.203125l-4.796875 0q-12.0 0 -12.0 -11.734375l0 -41.46875q0 -11.859375 12.0 -11.859375l4.796875 0q6.546875 0 8.265625 5.203125l0 -5.203125zm-9.0625 55.328125l4.671875 0q2.390625 0 3.390625 -1.0625q1.0 -1.0625 1.0 -3.609375l0 -36.265625q0 -2.53125 -1.0 -3.59375q-1.0 -1.0625 -3.390625 -1.0625l-4.671875 0q-2.390625 0 -3.203125 0.734375q-0.796875 0.734375 -0.796875 3.125l0 37.875q0 2.390625 0.796875 3.125q0.8125 0.734375 3.203125 0.734375zm53.06067 -55.328125l4.671875 0q12.140625 0 12.140625 11.859375l0 53.203125l-12.0 0l0 -51.46875q0 -2.390625 -0.8125 -3.125q-0.796875 -0.734375 -3.1875 -0.734375l-4.671875 0q-2.40625 0 -3.40625 1.0625q-1.0 1.0625 -1.0 3.59375l0 50.671875l-12.0 0l0 -65.0625l12.0 0l0 5.203125q1.734375 -5.203125 8.265625 -5.203125zm60.809875 31.328125l0 33.734375l-12.0 0l0 -83.46876l27.328125 0q12.40625 0 12.40625 11.734375l0 26.140633q0 10.125 -8.9375 11.59375l13.203125 34.0l-12.9375 0l-12.53125 -33.734375l-6.53125 0zm0 -40.000008l0 30.406258l11.734375 0q2.390625 0 3.1875 -0.734375q0.8125 -0.734375 0.8125 -3.140625l0 -22.656258q0 -2.40625 -0.8125 -3.140625q-0.796875 -0.734375 -3.1875 -0.734375l-11.734375 0zm51.329224 8.671883l14.265625 0q12.390625 0 12.390625 11.859375l0 41.46875q0 11.734375 -12.390625 11.734375l-14.265625 0q-12.265625 0 -12.265625 -11.734375l0 -41.46875q0 -11.859375 12.265625 -11.859375zm14.796875 51.59375l0 -38.125q0 -2.40625 -0.796875 -3.203125q-0.796875 -0.796875 -3.203125 -0.796875l-7.328125 0q-2.40625 0 -3.140625 0.796875q-0.734375 0.796875 -0.734375 3.203125l0 38.125q0 2.40625 0.734375 3.203125q0.734375 0.796875 3.140625 0.796875l7.328125 0q2.40625 0 3.203125 -0.796875q0.796875 -0.796875 0.796875 -3.203125zm47.190796 -75.73438l12.0 0l0 89.20313l-12.0 0l0 -5.203125q-1.71875 5.203125 -8.265625 5.203125l-4.796875 0q-12.0 0 -12.0 -11.734375l0 -41.59375q0 -11.875 12.0 -11.875l4.796875 0q6.546875 0 8.265625 5.203125l0 -29.203133zm-9.0625 79.46876l4.671875 0q2.390625 0 3.390625 -1.0625q1.0 -1.0625 1.0 -3.609375l0 -36.390625q0 -2.53125 -1.0 -3.59375q-1.0 -1.078125 -3.390625 -1.078125l-4.671875 0q-2.390625 0 -3.203125 0.8125q-0.796875 0.796875 -0.796875 3.0625l0 38.0q0 2.390625 0.796875 3.125q0.8125 0.734375 3.203125 0.734375zm55.34192 -55.46875l2.65625 0l0 10.40625l-4.796875 0q-8.40625 0 -8.40625 9.859375l0 44.9375l-12.0 0l0 -65.0625l12.0 0l0 8.0q1.078125 -3.46875 3.8125 -5.796875q2.734375 -2.34375 6.734375 -2.34375zm8.919617 -12.265633l0 -11.859375l12.53125 0l0 11.859375l-12.53125 0zm12.265625 77.46876l-12.0 0l0 -65.0625l12.0 0l0 65.0625zm35.998047 -65.0625l12.0 0l0 71.734375q0 11.734375 -12.53125 11.734375l-22.265625 0l0 -9.46875l18.796875 0q2.40625 0 3.203125 -0.8125q0.796875 -0.796875 0.796875 -3.0625l0 -11.0625q-1.71875 5.203125 -8.265625 5.203125l-4.796875 0q-12.0 0 -12.0 -11.875l0 -40.53125q0 -11.859375 12.0 -11.859375l4.796875 0q6.546875 0 8.265625 5.203125l0 -5.203125zm-9.0625 54.53125l4.671875 0q2.390625 0 3.390625 -1.0625q1.0 -1.078125 1.0 -3.609375l0 -35.46875q0 -2.53125 -1.0 -3.59375q-1.0 -1.0625 -3.390625 -1.0625l-4.671875 0q-2.390625 0 -3.203125 0.734375q-0.796875 0.734375 -0.796875 3.125l0 37.0625q0 2.265625 0.796875 3.078125q0.8125 0.796875 3.203125 0.796875zm57.732544 -54.53125l12.0 0l0 65.0625l-12.0 0l0 -5.203125q-1.734375 5.203125 -8.265625 5.203125l-4.796875 0q-12.0 0 -12.0 -11.734375l0 -53.328125l12.0 0l0 51.46875q0 2.390625 0.796875 3.125q0.796875 0.734375 3.203125 0.734375l4.671875 0q2.390625 0 3.390625 -1.0625q1.0 -1.0625 1.0 -3.609375l0 -50.65625zm35.86792 0l13.0625 0q12.53125 0 12.53125 11.859375l0 24.40625l-26.265625 0l0 15.46875q0 2.265625 0.796875 3.0625q0.8125 0.796875 3.203125 0.796875l6.140625 0q2.390625 0 3.1875 -0.796875q0.8125 -0.796875 0.8125 -3.203125l0 -5.328125l11.734375 0l0 7.0625q0 11.734375 -12.40625 11.734375l-12.796875 0q-12.40625 0 -12.40625 -11.734375l0 -41.46875q0 -11.859375 12.40625 -11.859375zm-0.671875 27.46875l14.40625 0l0 -14.140625q0 -2.265625 -0.734375 -3.0625q-0.734375 -0.796875 -3.140625 -0.796875l-6.53125 0q-2.390625 0 -3.203125 0.796875q-0.796875 0.796875 -0.796875 3.0625l0 14.140625zm67.732544 28.0l0 9.59375l-35.203125 0l0 -9.59375l22.546875 -45.875l-21.078125 0l0 -9.59375l33.46875 0l0 9.59375l-22.671875 45.875l22.9375 0z" fill-rule="nonzero"/><path fill="#000000" fill-opacity="0.0" d="m118.56431 154.49081l1133.5748 0l0 189.29135l-1133.5748 0z" fill-rule="evenodd"/><path fill="#ffffff" d="m204.57529 226.42831l4.65625 0q12.0 0 12.0 11.859375l0 53.203125l-12.0 0l0 -51.46875q0 -2.390625 -0.734375 -3.125q-0.734375 -0.734375 -3.125 -0.734375l-4.796875 0q-4.265625 0 -4.265625 4.65625l0 50.671875l-12.0 0l0 -51.46875q0 -2.390625 -0.8125 -3.125q-0.796875 -0.734375 -3.1875 -0.734375l-4.671875 0q-2.40625 0 -3.40625 1.0625q-1.0 1.0625 -1.0 3.59375l0 50.671875l-12.0 0l0 -65.0625l12.0 0l0 5.203125q1.734375 -5.203125 8.265625 -5.203125l4.671875 0q8.53125 0 11.0625 6.0q1.609375 -6.0 9.34375 -6.0zm39.860733 0l13.062515 0q12.53125 0 12.53125 11.859375l0 24.40625l-26.26564 0l0 15.46875q0 2.265625 0.796875 3.0625q0.8125 0.796875 3.203125 0.796875l6.140625 0q2.3906403 0 3.1875153 -0.796875q0.8125 -0.796875 0.8125 -3.203125l0 -5.328125l11.734375 0l0 7.0625q0 11.734375 -12.40625 11.734375l-12.79689 0q-12.40625 0 -12.40625 -11.734375l0 -41.46875q0 -11.859375 12.40625 -11.859375zm-0.671875 27.46875l14.406265 0l0 -14.140625q0 -2.265625 -0.734375 -3.0625q-0.734375 -0.796875 -3.1406403 -0.796875l-6.53125 0q-2.390625 0 -3.203125 0.796875q-0.796875 0.796875 -0.796875 3.0625l0 14.140625zm60.79503 -27.46875l12.0 0l0 71.734375q0 11.734375 -12.53125 11.734375l-22.265625 0l0 -9.46875l18.796875 0q2.40625 0 3.203125 -0.8125q0.796875 -0.796875 0.796875 -3.0625l0 -11.0625q-1.71875 5.203125 -8.265625 5.203125l-4.796875 0q-12.0 0 -12.0 -11.875l0 -40.53125q0 -11.859375 12.0 -11.859375l4.796875 0q6.546875 0 8.265625 5.203125l0 -5.203125zm-9.0625 54.53125l4.671875 0q2.390625 0 3.390625 -1.0625q1.0 -1.078125 1.0 -3.609375l0 -35.46875q0 -2.53125 -1.0 -3.59375q-1.0 -1.0625 -3.390625 -1.0625l-4.671875 0q-2.390625 0 -3.203125 0.734375q-0.796875 0.734375 -0.796875 3.125l0 37.0625q0 2.265625 0.796875 3.078125q0.8125 0.796875 3.203125 0.796875zm57.06067 -54.53125l12.0 0l0 65.0625l-12.0 0l0 -5.203125q-1.71875 5.203125 -8.265625 5.203125l-4.796875 0q-12.0 0 -12.0 -11.734375l0 -41.46875q0 -11.859375 12.0 -11.859375l4.796875 0q6.546875 0 8.265625 5.203125l0 -5.203125zm-9.0625 55.328125l4.671875 0q2.390625 0 3.390625 -1.0625q1.0 -1.0625 1.0 -3.609375l0 -36.265625q0 -2.53125 -1.0 -3.59375q-1.0 -1.0625 -3.390625 -1.0625l-4.671875 0q-2.390625 0 -3.203125 0.734375q-0.796875 0.734375 -0.796875 3.125l0 37.875q0 2.390625 0.796875 3.125q0.8125 0.734375 3.203125 0.734375zm53.06064 -55.328125l4.671875 0q12.140625 0 12.140625 11.859375l0 53.203125l-12.0 0l0 -51.46875q0 -2.390625 -0.8125 -3.125q-0.796875 -0.734375 -3.1875 -0.734375l-4.671875 0q-2.40625 0 -3.40625 1.0625q-1.0 1.0625 -1.0 3.59375l0 50.671875l-12.0 0l0 -65.0625l12.0 0l0 5.203125q1.734375 -5.203125 8.265625 -5.203125zm64.93042 20.796875l0 20.53125q0 2.265625 0.734375 3.078125q0.734375 0.796875 3.140625 0.796875l3.859375 0q4.265625 0 4.265625 -4.671875l0 -18.9375q0 -2.53125 -1.0 -3.53125q-1.0 -1.0 -3.265625 -1.0l-3.859375 0q-2.40625 0 -3.140625 0.734375q-0.734375 0.734375 -0.734375 3.0zm-11.328125 -1.46875q0 -11.46875 11.734375 -11.46875l3.59375 0q6.40625 0 8.140625 5.203125l0 -5.203125l10.9375 0l0 37.34375l5.859375 0q2.53125 0 3.265625 -0.734375q0.734375 -0.734375 0.734375 -3.140625l0 -39.328125q0 -2.40625 -0.734375 -3.203125q-0.734375 -0.796875 -3.265625 -0.796875l-45.859375 0q-2.40625 0 -3.140625 0.796875q-0.734375 0.796875 -0.734375 3.203125l0 58.921875q0 2.28125 0.734375 3.078125q0.734375 0.796875 3.140625 0.796875l40.125 0l0 9.59375l-43.46875 0q-11.984375 0 -11.984375 -11.734375l0 -62.53125q0 -11.71875 11.984375 -11.71875l52.53125 0q12.0 0 12.0 11.71875l0 42.40625q0 11.734375 -12.125 11.734375l-19.328125 0l0 -6.796875q-0.9375 6.796875 -8.8125 6.796875l-3.59375 0q-11.734375 0 -11.734375 -11.46875l0 -23.46875zm112.93707 -19.328125l4.65625 0q12.0 0 12.0 11.859375l0 53.203125l-12.0 0l0 -51.46875q0 -2.390625 -0.734375 -3.125q-0.734375 -0.734375 -3.125 -0.734375l-4.796875 0q-4.265625 0 -4.265625 4.65625l0 50.671875l-12.0 0l0 -51.46875q0 -2.390625 -0.8125 -3.125q-0.796875 -0.734375 -3.1875 -0.734375l-4.671875 0q-2.40625 0 -3.40625 1.0625q-1.0 1.0625 -1.0 3.59375l0 50.671875l-12.0 0l0 -65.0625l12.0 0l0 5.203125q1.734375 -5.203125 8.265625 -5.203125l4.671875 0q8.53125 0 11.0625 6.0q1.609375 -6.0 9.34375 -6.0zm73.06384 0l4.65625 0q12.0 0 12.0 11.859375l0 53.203125l-12.0 0l0 -51.46875q0 -2.390625 -0.734375 -3.125q-0.734375 -0.734375 -3.125 -0.734375l-4.796875 0q-4.265625 0 -4.265625 4.65625l0 50.671875l-12.0 0l0 -51.46875q0 -2.390625 -0.8125 -3.125q-0.796875 -0.734375 -3.1875 -0.734375l-4.671875 0q-2.40625 0 -3.40625 1.0625q-1.0 1.0625 -1.0 3.59375l0 50.671875l-12.0 0l0 -65.0625l12.0 0l0 5.203125q1.734375 -5.203125 8.265625 -5.203125l4.671875 0q8.53125 0 11.0625 6.0q1.609375 -6.0 9.34375 -6.0zm50.266968 -0.140625l2.65625 0l0 10.40625l-4.796875 0q-8.40625 0 -8.40625 9.859375l0 44.9375l-12.0 0l0 -65.0625l12.0 0l0 8.0q1.078125 -3.46875 3.8125 -5.796875q2.734375 -2.34375 6.734375 -2.34375zm20.794617 0.140625l14.265625 0q12.390625 0 12.390625 11.859375l0 41.46875q0 11.734375 -12.390625 11.734375l-14.265625 0q-12.265625 0 -12.265625 -11.734375l0 -41.46875q0 -11.859375 12.265625 -11.859375zm14.796875 51.59375l0 -38.125q0 -2.40625 -0.796875 -3.203125q-0.796875 -0.796875 -3.203125 -0.796875l-7.328125 0q-2.40625 0 -3.140625 0.796875q-0.734375 0.796875 -0.734375 3.203125l0 38.125q0 2.40625 0.734375 3.203125q0.734375 0.796875 3.140625 0.796875l7.328125 0q2.40625 0 3.203125 -0.796875q0.796875 -0.796875 0.796875 -3.203125zm47.190796 -75.734375l12.0 0l0 89.203125l-12.0 0l0 -5.203125q-1.71875 5.203125 -8.265625 5.203125l-4.796875 0q-12.0 0 -12.0 -11.734375l0 -41.59375q0 -11.875 12.0 -11.875l4.796875 0q6.546875 0 8.265625 5.203125l0 -29.203125zm-9.0625 79.46875l4.671875 0q2.390625 0 3.390625 -1.0625q1.0 -1.0625 1.0 -3.609375l0 -36.390625q0 -2.53125 -1.0 -3.59375q-1.0 -1.078125 -3.390625 -1.078125l-4.671875 0q-2.390625 0 -3.203125 0.8125q-0.796875 0.796875 -0.796875 3.0625l0 38.0q0 2.390625 0.796875 3.125q0.8125 0.734375 3.203125 0.734375zm55.34192 -55.46875l2.65625 0l0 10.40625l-4.796875 0q-8.40625 0 -8.40625 9.859375l0 44.9375l-12.0 0l0 -65.0625l12.0 0l0 8.0q1.078125 -3.46875 3.8125 -5.796875q2.734375 -2.34375 6.734375 -2.34375zm8.919617 -12.265625l0 -11.859375l12.53125 0l0 11.859375l-12.53125 0zm12.265625 77.46875l-12.0 0l0 -65.0625l12.0 0l0 65.0625zm35.998047 -65.0625l12.0 0l0 71.734375q0 11.734375 -12.53125 11.734375l-22.265625 0l0 -9.46875l18.796875 0q2.40625 0 3.203125 -0.8125q0.796875 -0.796875 0.796875 -3.0625l0 -11.0625q-1.71875 5.203125 -8.265625 5.203125l-4.796875 0q-12.0 0 -12.0 -11.875l0 -40.53125q0 -11.859375 12.0 -11.859375l4.796875 0q6.546875 0 8.265625 5.203125l0 -5.203125zm-9.0625 54.53125l4.671875 0q2.390625 0 3.390625 -1.0625q1.0 -1.078125 1.0 -3.609375l0 -35.46875q0 -2.53125 -1.0 -3.59375q-1.0 -1.0625 -3.390625 -1.0625l-4.671875 0q-2.390625 0 -3.203125 0.734375q-0.796875 0.734375 -0.796875 3.125l0 37.0625q0 2.265625 0.796875 3.078125q0.8125 0.796875 3.203125 0.796875zm57.732544 -54.53125l12.0 0l0 65.0625l-12.0 0l0 -5.203125q-1.734375 5.203125 -8.265625 5.203125l-4.796875 0q-12.0 0 -12.0 -11.734375l0 -53.328125l12.0 0l0 51.46875q0 2.390625 0.796875 3.125q0.796875 0.734375 3.203125 0.734375l4.671875 0q2.390625 0 3.390625 -1.0625q1.0 -1.0625 1.0 -3.609375l0 -50.65625zm35.86792 0l13.0625 0q12.53125 0 12.53125 11.859375l0 24.40625l-26.265625 0l0 15.46875q0 2.265625 0.796875 3.0625q0.8125 0.796875 3.203125 0.796875l6.140625 0q2.390625 0 3.1875 -0.796875q0.8125 -0.796875 0.8125 -3.203125l0 -5.328125l11.734375 0l0 7.0625q0 11.734375 -12.40625 11.734375l-12.796875 0q-12.40625 0 -12.40625 -11.734375l0 -41.46875q0 -11.859375 12.40625 -11.859375zm-0.671875 27.46875l14.40625 0l0 -14.140625q0 -2.265625 -0.734375 -3.0625q-0.734375 -0.796875 -3.140625 -0.796875l-6.53125 0q-2.390625 0 -3.203125 0.796875q-0.796875 0.796875 -0.796875 3.0625l0 14.140625zm67.732544 28.0l0 9.59375l-35.203125 0l0 -9.59375l22.546875 -45.875l-21.078125 0l0 -9.59375l33.46875 0l0 9.59375l-22.671875 45.875l22.9375 0zm6.1348877 9.59375l0 -16.40625l13.46875 0l0 16.40625l-13.46875 0zm60.405396 -44.53125l-11.875 0l0 -6.9375q0 -2.390625 -0.796875 -3.125q-0.796875 -0.734375 -3.203125 -0.734375l-5.734375 0q-2.390625 0 -3.203125 0.734375q-0.796875 0.734375 -0.796875 3.125l0 37.875q0 2.390625 0.796875 3.125q0.8125 0.734375 3.203125 0.734375l5.734375 0q2.40625 0 3.203125 -0.734375q0.796875 -0.734375 0.796875 -3.125l0 -6.9375l11.875 0l0 8.796875q0 11.734375 -12.546875 11.734375l-12.65625 0q-12.40625 0 -12.40625 -11.734375l0 -41.46875q0 -11.859375 12.40625 -11.859375l12.65625 0q12.546875 0 12.546875 11.859375l0 8.671875zm21.595093 -20.53125l14.265625 0q12.390625 0 12.390625 11.859375l0 41.46875q0 11.734375 -12.390625 11.734375l-14.265625 0q-12.265625 0 -12.265625 -11.734375l0 -41.46875q0 -11.859375 12.265625 -11.859375zm14.796875 51.59375l0 -38.125q0 -2.40625 -0.796875 -3.203125q-0.796875 -0.796875 -3.203125 -0.796875l-7.328125 0q-2.40625 0 -3.140625 0.796875q-0.734375 0.796875 -0.734375 3.203125l0 38.125q0 2.40625 0.734375 3.203125q0.734375 0.796875 3.140625 0.796875l7.328125 0q2.40625 0 3.203125 -0.796875q0.796875 -0.796875 0.796875 -3.203125zm68.26904 -51.59375l4.65625 0q12.0 0 12.0 11.859375l0 53.203125l-12.0 0l0 -51.46875q0 -2.390625 -0.734375 -3.125q-0.734375 -0.734375 -3.125 -0.734375l-4.796875 0q-4.265625 0 -4.265625 4.65625l0 50.671875l-12.0 0l0 -51.46875q0 -2.390625 -0.8125 -3.125q-0.796875 -0.734375 -3.1875 -0.734375l-4.671875 0q-2.40625 0 -3.40625 1.0625q-1.0 1.0625 -1.0 3.59375l0 50.671875l-12.0 0l0 -65.0625l12.0 0l0 5.203125q1.734375 -5.203125 8.265625 -5.203125l4.671875 0q8.53125 0 11.0625 6.0q1.609375 -6.0 9.34375 -6.0z" fill-rule="nonzero"/></g></svg>