<svg version="1.1" viewBox="0.0 0.0 495.7690288713911 100.0" fill="none" stroke="none" stroke-linecap="square" stroke-miterlimit="10" xmlns:xlink="http://www.w3.org/1999/xlink" xmlns="http://www.w3.org/2000/svg"><clipPath id="p.0"><path d="m0 0l495.76904 0l0 100.0l-495.76904 0l0 -100.0z" clip-rule="nonzero"/></clipPath><g clip-path="url(#p.0)"><path fill="#1a1a1a" d="m0 0l495.76904 0l0 100.0l-495.76904 0z" fill-rule="evenodd"/><path fill="#ffffff" d="m22.014786 8.443569c-7.4394236 0 -11.159144 2.99755 -11.159144 8.992655l0 16.838373c0 6.061592 3.6416855 9.092388 10.925036 9.092388l8.857082 0c1.4436646 0 2.3800964 0.18838501 2.8092957 0.565155c0.44221115 0.37677002 0.6633072 1.1746407 0.6633072 2.393608l0 15.624947c0 1.2300491 -0.22109604 2.0334625 -0.6633072 2.4102287c-0.42919922 0.36569214 -1.3656311 0.5485382 -2.8092957 0.5485382l-5.0333195 0c-1.4306526 0 -2.3865948 -0.18284607 -2.8678226 -0.5485382c-0.48122787 -0.3767662 -0.7218323 -1.1801796 -0.7218323 -2.4102287l0 -7.9620743l-10.905528 0l0 9.39159c0 5.995102 3.7132063 8.992653 11.139636 8.992653l11.627361 0c7.51746 0 11.276196 -2.997551 11.276196 -8.992653l0 -18.384243c0 -5.98402 -3.6807022 -8.976032 -11.042088 -8.976032l-8.74003 0c-1.4436665 0 -2.4061031 -0.18838501 -2.887331 -0.56515884c-0.46821594 -0.37677383 -0.7023239 -1.1746407 -0.7023239 -2.393608l0 -14.195429c0 -1.2300491 0.23410797 -2.0334568 0.7023239 -2.4102306c0.48122787 -0.37677383 1.4436646 -0.5651579 2.887331 -0.5651579l5.0333195 0c1.4436665 0 2.3996086 0.18838406 2.8678246 0.5651579c0.48122787 0.37677383 0.7218323 1.1801815 0.7218323 2.4102306l0 7.9620743l10.905525 0l0 -9.39159c0 -5.995105 -3.7132034 -8.992655 -11.139633 -8.992655z" fill-rule="evenodd"/><path fill="#ffffff" d="m55.452877 8.443569l0 54.93664c0 5.995102 3.7587395 8.992653 11.276196 8.992653l13.305138 0c7.5044556 0 11.256691 -2.997551 11.256691 -8.992653l0 -54.93664l-10.905533 0l0 53.507126c0 1.2300491 -0.22109222 2.0334625 -0.66329956 2.4102287c-0.44221497 0.36569214 -1.4176636 0.5485382 -2.9263535 0.5485382l-6.8476562 0c-1.4306488 0 -2.3865967 -0.18284607 -2.8678207 -0.5485382c-0.4812317 -0.3767662 -0.7218323 -1.1801796 -0.7218323 -2.4102287l0 -53.507126z" fill-rule="evenodd"/><path fill="#ffffff" d="m124.732574 15.890351c1.4436646 0 2.3996048 0.18838406 2.8678207 0.5651579c0.48122406 0.37677383 0.72182465 1.1801815 0.72182465 2.4102306l0 17.353662c0 1.2300491 -0.24060059 2.0334587 -0.72182465 2.4102325c-0.46821594 0.36568832 -1.4241562 0.5485344 -2.8678207 0.5485344l-10.554367 0l0 -23.287819zm-21.342842 -7.446782l0 63.929295l10.788475 0l0 -25.831024l5.891716 0l11.256691 25.831024l11.627365 0l-11.861481 -26.047115c5.3454742 -0.74245834 8.018204 -3.7012253 8.018204 -8.876297l0 -20.013227c0 -5.995105 -3.713211 -8.992655 -11.139641 -8.992655z" fill-rule="evenodd"/><path fill="#ffffff" d="m145.23697 8.443569l13.53923 63.929295l15.334076 0l13.558746 -63.929295l-11.159134 0l-10.183701 55.45193l-9.949585 -55.45193z" fill-rule="evenodd"/><path fill="#ffffff" d="m194.48576 8.443569l0 63.929295l32.619034 0l0 -7.463402l-21.694 0l0 -21.841679l17.245956 0l0 -7.4634056l-17.245956 0l0 -19.714027l20.855118 0l0 -7.446782z" fill-rule="evenodd"/><path fill="#ffffff" d="m229.86319 8.443569l16.055893 43.699978l0 20.229317l10.905533 0l0 -20.229317l15.334076 -43.699978l-11.022583 0l-9.832535 35.23924l-10.417801 -35.23924z" fill-rule="evenodd"/><path fill="#ffffff" d="m296.24963 8.443569l0 63.929295l10.925018 0l0 -28.191387l17.245972 0l0 -7.2473145l-17.245972 0l0 -21.043812l21.811066 0l0 -7.446782z" fill-rule="evenodd"/><path fill="#ffffff" d="m356.78226 15.890351c1.4436646 0 2.406128 0.18838406 2.887329 0.5651579c0.4812317 0.37677383 0.7218323 1.1801815 0.7218323 2.4102306l0 43.084953c0 1.2300491 -0.24060059 2.0334625 -0.7218323 2.4102287c-0.48120117 0.36569214 -1.4436646 0.5485382 -2.887329 0.5485382l-6.9451904 0c-1.4436646 0 -2.3865967 -0.18284607 -2.8287964 -0.5485382c-0.42919922 -0.3767662 -0.6437988 -1.1801796 -0.6437988 -2.4102287l0 -43.084953c0 -1.2300491 0.21459961 -2.0334568 0.6437988 -2.4102306c0.4421997 -0.37677383 1.3851318 -0.5651579 2.8287964 -0.5651579zm-10.06665 -7.446782c-7.5044556 0 -11.256683 2.99755 -11.256683 8.992655l0 45.943985c0 5.995102 3.7522278 8.992653 11.256683 8.992653l13.305145 0c7.4394226 0 11.159149 -2.997551 11.159149 -8.992653l0 -45.943985c0 -5.995105 -3.7197266 -8.992655 -11.159149 -8.992655z" fill-rule="evenodd"/><path fill="#ffffff" d="m404.49326 15.890351c1.4436646 0 2.3995972 0.18838406 2.8678284 0.5651579c0.4812317 0.37677383 0.7218323 1.1801815 0.7218323 2.4102306l0 17.353662c0 1.2300491 -0.24060059 2.0334587 -0.7218323 2.4102325c-0.4682312 0.36568832 -1.4241638 0.5485344 -2.8678284 0.5485344l-10.554352 0l0 -23.287819zm-21.342834 -7.446782l0 63.929295l10.788483 0l0 -25.831024l5.891693 0l11.256714 25.831024l11.62735 0l-11.861481 -26.047115c5.3454895 -0.74245834 8.018219 -3.7012253 8.018219 -8.876297l0 -20.013227c0 -5.995105 -3.7132263 -8.992655 -11.139648 -8.992655z" fill-rule="evenodd"/><path fill="#ffffff" d="m430.61627 8.443569l0 63.929295l9.481354 0l0 -46.675365l10.300751 32.77914l9.83255 0l10.30072 -32.878876l0 46.7751l9.481384 0l0 -63.929295l-11.861481 0l-12.836914 39.62752l-12.817413 -39.62752z" fill-rule="evenodd"/></g></svg>